<?xml version="1.0" encoding="UTF-8"?><svg id="Layer_1" xmlns="http://www.w3.org/2000/svg" viewBox="0 0 16 16"><defs><style>.cls-1{fill:#c5c5c5;}</style></defs><path class="cls-1" d="M8,8.03c-1.75,0-3.17-1.42-3.17-3.17s1.42-3.17,3.17-3.17,3.17,1.42,3.17,3.17-1.42,3.17-3.17,3.17Zm0-5.14c-1.09,0-1.97,.88-1.97,1.97s.88,1.97,1.97,1.97,1.97-.88,1.97-1.97-.88-1.97-1.97-1.97Z"/><path class="cls-1" d="M12.25,14.31c-.33,0-.6-.27-.6-.6,0-2.18-1.64-3.95-3.65-3.95s-3.65,1.77-3.65,3.95c0,.33-.27,.6-.6,.6s-.6-.27-.6-.6c0-2.84,2.18-5.15,4.85-5.15s4.85,2.31,4.85,5.15c0,.33-.27,.6-.6,.6Z"/></svg>