<?xml version="1.0" encoding="UTF-8"?><svg id="Layer_1" xmlns="http://www.w3.org/2000/svg" viewBox="0 0 16 16"><defs><style>.cls-1{fill:#c5c5c5;}</style></defs><path class="cls-1" d="M8.01,7.11c-1.79,0-3.25,1.55-3.25,3.45v2.65c0,.19,.15,.34,.34,.34h5.82c.19,0,.34-.15,.34-.34v-2.65c0-1.9-1.46-3.45-3.25-3.45Z"/><path class="cls-1" d="M12.34,7.47c-.3,0-.59,.05-.87,.14-.16,.05-.25,.23-.19,.39,.05,.16,.23,.25,.39,.19,.22-.07,.45-.11,.68-.11,1.27,0,2.3,1.11,2.3,2.48v1.65c0,.17,.14,.31,.31,.31s.31-.14,.31-.31v-1.65c0-1.71-1.31-3.1-2.91-3.1Z"/><path class="cls-1" d="M12.34,7.05c1.04,0,1.88-.85,1.88-1.88s-.85-1.88-1.88-1.88-1.88,.85-1.88,1.88,.85,1.88,1.88,1.88Zm0-3.16c.7,0,1.27,.57,1.27,1.27s-.57,1.27-1.27,1.27-1.27-.57-1.27-1.27,.57-1.27,1.27-1.27Z"/><path class="cls-1" d="M4.53,7.61c-.28-.09-.57-.14-.87-.14-1.61,0-2.91,1.39-2.91,3.1v1.65c0,.17,.14,.31,.31,.31s.31-.14,.31-.31v-1.65c0-1.37,1.03-2.48,2.3-2.48,.23,0,.46,.04,.68,.11,.16,.05,.33-.03,.39-.19,.05-.16-.03-.33-.19-.39Z"/><path class="cls-1" d="M3.66,7.05c1.04,0,1.88-.85,1.88-1.88s-.85-1.88-1.88-1.88-1.88,.85-1.88,1.88,.85,1.88,1.88,1.88Zm0-3.16c.7,0,1.27,.57,1.27,1.27s-.57,1.27-1.27,1.27-1.27-.57-1.27-1.27,.57-1.27,1.27-1.27Z"/><path class="cls-1" d="M8.01,6.65c1.16,0,2.1-.94,2.1-2.1s-.94-2.1-2.1-2.1-2.1,.94-2.1,2.1,.94,2.1,2.1,2.1Z"/></svg>