<?xml version="1.0" encoding="UTF-8"?><svg id="Layer_1" xmlns="http://www.w3.org/2000/svg" viewBox="0 0 16 16"><defs><style>.cls-1{fill:#c5c5c5;}</style></defs><path class="cls-1" d="M2,13.64c.07-.26,.14-.52,.21-.79,.17-.69,.34-1.38,.52-2.08,.02-.07,.06-.14,.11-.19,2.17-2.18,4.34-4.35,6.52-6.52,.02-.02,.03-.03,.04-.04,.86,.86,1.71,1.71,2.57,2.57-.02,.02-.04,.05-.07,.08-2.15,2.15-4.3,4.3-6.46,6.45-.07,.06-.16,.12-.25,.14-.93,.24-1.86,.47-2.79,.7-.21,.05-.28,.02-.4-.16,0-.05,0-.11,0-.16Z"/><path class="cls-1" d="M12.73,5.84c-.86-.86-1.71-1.71-2.57-2.57,.02-.02,.04-.05,.06-.07,.26-.27,.53-.53,.8-.8,.54-.53,1.35-.53,1.89,0,.23,.23,.46,.46,.69,.69,.54,.55,.54,1.33,0,1.88-.29,.29-.58,.58-.87,.87Z"/></svg>