<?xml version="1.0" encoding="UTF-8"?><svg id="Layer_1" xmlns="http://www.w3.org/2000/svg" viewBox="0 0 16 16"><defs><style>.cls-1{fill:#c5c5c5;}</style></defs><path class="cls-1" d="M11.86,3.59c0-.21,0-.39,0-.57,0-.36,.25-.62,.6-.63,.34,0,.59,.25,.6,.61,0,.72,.01,1.44,.01,2.15,0,.35-.26,.6-.61,.61-.71,0-1.43,0-2.14,0-.35,0-.62-.25-.62-.59,0-.33,.26-.59,.61-.6,.23,0,.46,0,.69,0,.04,0,.07,0,.13-.01-.32-.28-.66-.5-1.02-.68-2.83-1.38-6.17,.25-6.83,3.33-.56,2.64,1.22,5.27,3.87,5.72,2.58,.44,5-1.21,5.54-3.76,.1-.48,.12-.97,.07-1.46-.05-.48,.37-.82,.8-.67,.26,.09,.38,.29,.4,.56,.28,3.03-1.7,5.78-4.65,6.44-3.28,.74-6.53-1.37-7.2-4.67-.65-3.24,1.44-6.42,4.68-7.06,1.82-.36,3.47,.05,4.94,1.18,.03,.03,.07,.05,.13,.1Z"/></svg>