<?xml version="1.0" encoding="UTF-8"?><svg id="Layer_1" xmlns="http://www.w3.org/2000/svg" viewBox="0 0 16 16"><defs><style>.cls-1{fill:#c5c5c5;}</style></defs><path class="cls-1" d="M8.7,2c1.47,0,2.94,0,4.41,0,.18,.04,.35,.09,.5,.21,.22,.17,.34,.41,.39,.68V7.3s-.02,.03-.02,.05c-.07,.26-.17,.5-.36,.7-1.88,1.87-3.75,3.75-5.63,5.62-.44,.44-1.05,.44-1.49,0-1.39-1.39-2.78-2.78-4.17-4.17-.11-.11-.21-.26-.26-.41-.16-.42-.03-.79,.28-1.1,1.86-1.86,3.73-3.73,5.6-5.59,.13-.13,.3-.22,.46-.31,.09-.05,.2-.07,.3-.1Zm2.3,2c-.54,0-1,.45-1,1,0,.54,.45,1,1,1,.54,0,1-.45,1-1,0-.54-.45-1-1-1Z"/></svg>