<?xml version="1.0" encoding="UTF-8"?><svg id="Layer_1" xmlns="http://www.w3.org/2000/svg" viewBox="0 0 16 16"><defs><style>.cls-1{fill:#c5c5c5;}</style></defs><path class="cls-1" d="M9.23,2c-2.64,0-4.78,2.14-4.78,4.78,0,1.09,.37,2.1,1.01,2.91l-3.3,3.3c-.23,.23-.23,.6,0,.84,.12,.12,.27,.17,.42,.17,.15,0,.3-.05,.41-.17l3.3-3.3c.81,.65,1.83,1.02,2.94,1.02,2.64,0,4.78-2.14,4.78-4.78s-2.14-4.78-4.78-4.78Zm0,8.38c-.99,0-1.9-.4-2.55-1.05h0c-.64-.67-1.04-1.55-1.04-2.55,0-1.99,1.61-3.6,3.6-3.6s3.61,1.61,3.61,3.6-1.62,3.6-3.61,3.6Z"/></svg>