<?xml version="1.0" encoding="utf-8"?>
<svg width="100px" height="100px" viewBox="0 0 100 100" version="1.1" xmlns:xlink="http://www.w3.org/1999/xlink" xmlns="http://www.w3.org/2000/svg">
  <defs>
    <rect width="100" height="100" id="artboard_1" />
    <clipPath id="clip_1">
      <use xlink:href="#artboard_1" clip-rule="evenodd" />
    </clipPath>
  </defs>
  <g id="clipboard_dark" clip-path="url(#clip_1)">
    <use xlink:href="#artboard_1" stroke="none" fill="#FFFFFF" fill-opacity="0" />
    <g id="Group-5" transform="translate(18 10)" artboard="ef01307d-0741-4b39-bb31-62f70adcc9be">
      <g id="Group">
        <path d="M46.001 0L17.999 0Q17.9008 0 17.8031 0.00962573Q17.7053 0.0192515 17.609 0.0384102Q17.5127 0.057569 17.4187 0.0860763Q17.3247 0.114584 17.234 0.152165Q17.1433 0.189746 17.0567 0.236039Q16.9701 0.282333 16.8884 0.336892Q16.8068 0.391452 16.7308 0.453752Q16.6549 0.516052 16.5855 0.585494Q16.5161 0.654935 16.4538 0.730848Q16.3915 0.806761 16.3369 0.888415Q16.2823 0.970069 16.236 1.05668Q16.1897 1.14329 16.1522 1.23402Q16.1146 1.32474 16.0861 1.41872Q16.0576 1.5127 16.0384 1.60901Q16.0193 1.70533 16.0096 1.80306Q16 1.9008 16 1.999L16 7.27273L3.999 7.27273Q3.80254 7.27273 3.60703 7.29198Q3.41152 7.31124 3.21883 7.34957Q3.02615 7.38789 2.83815 7.44492Q2.65015 7.50195 2.46865 7.57713Q2.28715 7.65231 2.11388 7.74492Q1.94062 7.83753 1.77727 7.94668Q1.61393 8.05583 1.46206 8.18046Q1.3102 8.30509 1.17128 8.44401Q1.03236 8.58292 0.907731 8.73479Q0.783099 8.88665 0.673953 9.05Q0.564807 9.21335 0.472197 9.38661Q0.379587 9.55987 0.304406 9.74137Q0.229224 9.92288 0.172196 10.1109Q0.115167 10.2989 0.0768396 10.4916Q0.0385126 10.6842 0.0192563 10.8798Q0 11.0753 0 11.2717L0 76.001Q0 76.1975 0.0192563 76.393Q0.0385126 76.5885 0.0768396 76.7812Q0.115167 76.9739 0.172196 77.1618Q0.229224 77.3498 0.304406 77.5313Q0.379587 77.7129 0.472197 77.8861Q0.564807 78.0594 0.673953 78.2227Q0.783099 78.3861 0.907731 78.5379Q1.03236 78.6898 1.17128 78.8287Q1.3102 78.9676 1.46206 79.0923Q1.61393 79.2169 1.77727 79.326Q1.94062 79.4352 2.11388 79.5278Q2.28715 79.6204 2.46865 79.6956Q2.65015 79.7708 2.83815 79.8278Q3.02615 79.8848 3.21883 79.9231Q3.41152 79.9615 3.60703 79.9807Q3.80254 80 3.999 80L60.001 80Q60.1975 80 60.393 79.9807Q60.5885 79.9615 60.7812 79.9231Q60.9739 79.8848 61.1618 79.8278Q61.3498 79.7708 61.5313 79.6956Q61.7128 79.6204 61.8861 79.5278Q62.0594 79.4352 62.2227 79.326Q62.3861 79.2169 62.5379 79.0923Q62.6898 78.9676 62.8287 78.8287Q62.9676 78.6898 63.0923 78.5379Q63.2169 78.3861 63.326 78.2227Q63.4352 78.0594 63.5278 77.8861Q63.6204 77.7129 63.6956 77.5313Q63.7708 77.3498 63.8278 77.1618Q63.8848 76.9739 63.9232 76.7812Q63.9615 76.5885 63.9807 76.393Q64 76.1975 64 76.001L64 11.2717Q64 11.0753 63.9807 10.8798Q63.9615 10.6842 63.9232 10.4916Q63.8848 10.2989 63.8278 10.1109Q63.7708 9.92288 63.6956 9.74137Q63.6204 9.55987 63.5278 9.38661Q63.4352 9.21335 63.326 9.05Q63.2169 8.88665 63.0923 8.73479Q62.9676 8.58292 62.8287 8.44401Q62.6898 8.30509 62.5379 8.18046Q62.3861 8.05583 62.2227 7.94668Q62.0594 7.83753 61.8861 7.74492Q61.7129 7.65231 61.5313 7.57713Q61.3498 7.50195 61.1618 7.44492Q60.9739 7.38789 60.7812 7.34957Q60.5885 7.31124 60.393 7.29198Q60.1975 7.27273 60.001 7.27273L48 7.27273L48 1.999Q48 1.9008 47.9904 1.80306Q47.9807 1.70533 47.9616 1.60901Q47.9424 1.5127 47.9139 1.41872Q47.8854 1.32474 47.8478 1.23402Q47.8102 1.14329 47.764 1.05668Q47.7177 0.970069 47.6631 0.888415Q47.6085 0.806761 47.5462 0.730848Q47.4839 0.654935 47.4145 0.585494Q47.3451 0.516052 47.2692 0.453752Q47.1932 0.391452 47.1116 0.336892Q47.0299 0.282333 46.9433 0.236039Q46.8567 0.189746 46.766 0.152165Q46.6753 0.114584 46.5813 0.0860763Q46.4873 0.057569 46.391 0.0384102Q46.2947 0.0192515 46.1969 0.00962573Q46.0992 0 46.001 0Z" id="Rectangle-2-Union" fill="none" fill-rule="evenodd" stroke="#C5C5C5" stroke-width="4" />
        <path d="M17.999 0L46.001 0Q46.0992 0 46.1969 0.00962573Q46.2947 0.0192515 46.391 0.0384102Q46.4873 0.057569 46.5813 0.0860763Q46.6752 0.114584 46.766 0.152165Q46.8567 0.189746 46.9433 0.236039Q47.0299 0.282333 47.1116 0.336892Q47.1932 0.391452 47.2691 0.453752Q47.3451 0.516052 47.4145 0.585494Q47.4839 0.654935 47.5462 0.730848Q47.6085 0.806761 47.6631 0.888415Q47.7177 0.970069 47.764 1.05668Q47.8102 1.14329 47.8478 1.23402Q47.8854 1.32474 47.9139 1.41872Q47.9424 1.5127 47.9616 1.60901Q47.9807 1.70533 47.9904 1.80306Q48 1.9008 48 1.999L48 14.001Q48 14.0992 47.9904 14.1969Q47.9807 14.2947 47.9616 14.391Q47.9424 14.4873 47.9139 14.5813Q47.8854 14.6753 47.8478 14.766Q47.8102 14.8567 47.764 14.9433Q47.7177 15.0299 47.6631 15.1116Q47.6085 15.1932 47.5462 15.2692Q47.4839 15.3451 47.4145 15.4145Q47.3451 15.4839 47.2692 15.5462Q47.1932 15.6085 47.1116 15.6631Q47.0299 15.7177 46.9433 15.764Q46.8567 15.8103 46.766 15.8478Q46.6753 15.8854 46.5813 15.9139Q46.4873 15.9424 46.391 15.9616Q46.2947 15.9807 46.1969 15.9904Q46.0992 16 46.001 16L17.999 16Q17.9008 16 17.8031 15.9904Q17.7053 15.9807 17.609 15.9616Q17.5127 15.9424 17.4187 15.9139Q17.3247 15.8854 17.234 15.8478Q17.1433 15.8103 17.0567 15.764Q16.9701 15.7177 16.8884 15.6631Q16.8068 15.6085 16.7308 15.5462Q16.6549 15.4839 16.5855 15.4145Q16.5161 15.3451 16.4538 15.2692Q16.3915 15.1932 16.3369 15.1116Q16.2823 15.0299 16.236 14.9433Q16.1897 14.8567 16.1522 14.766Q16.1146 14.6753 16.0861 14.5813Q16.0576 14.4873 16.0384 14.391Q16.0193 14.2947 16.0096 14.1969Q16 14.0992 16 14.001L16 1.999Q16 1.9008 16.0096 1.80306Q16.0193 1.70533 16.0384 1.60901Q16.0576 1.5127 16.0861 1.41872Q16.1146 1.32474 16.1522 1.23402Q16.1897 1.14329 16.236 1.05668Q16.2823 0.970069 16.3369 0.888415Q16.3915 0.806761 16.4538 0.730848Q16.5161 0.654935 16.5855 0.585494Q16.6549 0.516052 16.7308 0.453752Q16.8068 0.391452 16.8884 0.336892Q16.9701 0.282333 17.0567 0.236039Q17.1433 0.189746 17.234 0.152165Q17.3247 0.114584 17.4187 0.0860763Q17.5127 0.057569 17.609 0.0384102Q17.7053 0.0192515 17.8031 0.00962573Q17.9008 0 17.999 0Z" id="Rectangle-5" fill="none" fill-rule="evenodd" stroke="#C5C5C5" stroke-width="4" />
      </g>
      <g id="Group-2" transform="translate(9 24)">
        <path d="M18.5 5.4614L46.5 5.4614" id="Line" fill="none" fill-rule="evenodd" stroke="#C5C5C5" stroke-width="4" stroke-linecap="square" />
        <path d="M0 4.9614L4 8.9614L12 0" id="Vector" fill="none" fill-rule="evenodd" stroke="#C5C5C5" stroke-width="4" />
      </g>
      <g id="Group-3" transform="translate(9 41)">
        <path d="M18.5 5.4614L46.5 5.4614" id="Line" fill="none" fill-rule="evenodd" stroke="#C5C5C5" stroke-width="4" stroke-linecap="square" />
        <path d="M0 4.9614L4 8.9614L12 0" id="Vector" fill="none" fill-rule="evenodd" stroke="#C5C5C5" stroke-width="4" />
      </g>
      <g id="Group-4" transform="translate(9 58)">
        <path d="M18.5 5.4614L46.5 5.4614" id="Line" fill="none" fill-rule="evenodd" stroke="#C5C5C5" stroke-width="4" stroke-linecap="square" />
        <path d="M0 4.9614L4 8.9614L12 0" id="Vector" fill="none" fill-rule="evenodd" stroke="#C5C5C5" stroke-width="4" />
      </g>
    </g>
  </g>
</svg>