<?xml version="1.0" encoding="utf-8"?>
<svg width="100px" height="100px" viewBox="0 0 100 100" version="1.1" xmlns:xlink="http://www.w3.org/1999/xlink" xmlns="http://www.w3.org/2000/svg">
  <defs>
    <path d="M0 33.332C0 14.9232 14.9232 0 33.332 0C51.7408 0 66.664 14.9232 66.664 33.332C66.664 51.7408 51.7408 66.664 33.332 66.664C14.9232 66.664 0 51.7408 0 33.332Z" id="path_1" />
    <path d="M9.30099 0L9.29899 0Q9.07071 0 8.84271 0.011201Q8.61471 0.0224021 8.38753 0.0447772Q8.16035 0.0671523 7.93455 0.100648Q7.70874 0.134143 7.48485 0.178678Q7.26096 0.223212 7.03952 0.278679Q6.81808 0.334146 6.59964 0.400411Q6.38119 0.466677 6.16625 0.543581Q5.95132 0.620486 5.74042 0.707844Q5.52952 0.795202 5.32316 0.892803Q5.1168 0.990404 4.91548 1.09801Q4.71415 1.20562 4.51835 1.32298Q4.32255 1.44034 4.13275 1.56716Q3.94294 1.69399 3.75959 1.82997Q3.57623 1.96596 3.39977 2.11077Q3.22331 2.25559 3.05417 2.40889Q2.88503 2.5622 2.72361 2.72361Q2.5622 2.88503 2.40889 3.05417Q2.25559 3.22331 2.11077 3.39977Q1.96596 3.57623 1.82997 3.75959Q1.69399 3.94294 1.56716 4.13275Q1.44034 4.32255 1.32298 4.51835Q1.20562 4.71415 1.09801 4.91548Q0.990404 5.1168 0.892803 5.32316Q0.795202 5.52952 0.707844 5.74042Q0.620485 5.95132 0.543581 6.16626Q0.466677 6.38119 0.400411 6.59964Q0.334146 6.81809 0.278679 7.03952Q0.223212 7.26096 0.178677 7.48485Q0.134143 7.70874 0.100648 7.93455Q0.0671523 8.16035 0.0447772 8.38753Q0.0224021 8.61471 0.011201 8.84271Q0 9.07071 0 9.29899L0 74.701Q0 74.9293 0.011201 75.1573Q0.0224021 75.3853 0.0447772 75.6125Q0.0671523 75.8397 0.100648 76.0654Q0.134143 76.2913 0.178678 76.5151Q0.223212 76.739 0.278679 76.9605Q0.334146 77.1819 0.400411 77.4004Q0.466677 77.6188 0.543581 77.8337Q0.620486 78.0487 0.707844 78.2596Q0.795202 78.4705 0.892803 78.6768Q0.990404 78.8832 1.09801 79.0845Q1.20562 79.2858 1.32298 79.4816Q1.44034 79.6774 1.56716 79.8672Q1.69399 80.057 1.82997 80.2404Q1.96596 80.4238 2.11077 80.6002Q2.25559 80.7767 2.40889 80.9458Q2.5622 81.115 2.72361 81.2764Q2.88503 81.4378 3.05417 81.5911Q3.22331 81.7444 3.39977 81.8892Q3.57623 82.034 3.75959 82.17Q3.94294 82.306 4.13275 82.4328Q4.32255 82.5597 4.51835 82.677Q4.71415 82.7944 4.91548 82.902Q5.1168 83.0096 5.32316 83.1072Q5.52952 83.2048 5.74042 83.2922Q5.95132 83.3795 6.16626 83.4564Q6.38119 83.5333 6.59964 83.5996Q6.81809 83.6658 7.03952 83.7213Q7.26096 83.7768 7.48485 83.8213Q7.70874 83.8658 7.93455 83.8994Q8.16035 83.9328 8.38753 83.9552Q8.61471 83.9776 8.84271 83.9888Q9.07071 84 9.29899 84L9.30099 84Q9.52927 84 9.75727 83.9888Q9.98528 83.9776 10.2125 83.9552Q10.4396 83.9328 10.6654 83.8994Q10.8912 83.8658 11.1151 83.8213Q11.339 83.7768 11.5605 83.7213Q11.7819 83.6658 12.0003 83.5996Q12.2188 83.5333 12.4337 83.4564Q12.6487 83.3795 12.8596 83.2922Q13.0705 83.2048 13.2768 83.1072Q13.4832 83.0096 13.6845 82.902Q13.8858 82.7944 14.0816 82.677Q14.2774 82.5597 14.4672 82.4328Q14.657 82.306 14.8404 82.17Q15.0237 82.034 15.2002 81.8892Q15.3767 81.7444 15.5458 81.5911Q15.715 81.4378 15.8764 81.2764Q16.0378 81.115 16.1911 80.9458Q16.3444 80.7767 16.4892 80.6002Q16.634 80.4238 16.77 80.2404Q16.906 80.057 17.0328 79.8672Q17.1596 79.6774 17.277 79.4816Q17.3944 79.2858 17.502 79.0845Q17.6096 78.8832 17.7072 78.6768Q17.8048 78.4705 17.8921 78.2596Q17.9795 78.0487 18.0564 77.8337Q18.1333 77.6188 18.1996 77.4004Q18.2658 77.1819 18.3213 76.9605Q18.3768 76.739 18.4213 76.5151Q18.4658 76.2913 18.4993 76.0654Q18.5328 75.8397 18.5552 75.6125Q18.5776 75.3853 18.5888 75.1573Q18.6 74.9293 18.6 74.701L18.6 66.6252C24.4353 71.6473 32.0292 74.6831 40.332 74.6831C58.7408 74.6831 73.6641 59.7599 73.6641 41.3511C73.6641 22.9423 58.7408 8.0191 40.332 8.0191C32.0292 8.0191 24.4353 11.0549 18.6 16.077L18.6 9.29899Q18.6 9.07071 18.5888 8.84271Q18.5776 8.61471 18.5552 8.38753Q18.5328 8.16035 18.4993 7.93455Q18.4658 7.70874 18.4213 7.48485Q18.3768 7.26096 18.3213 7.03952Q18.2658 6.81809 18.1996 6.59964Q18.1333 6.38119 18.0564 6.16626Q17.9795 5.95132 17.8921 5.74042Q17.8048 5.52952 17.7072 5.32316Q17.6096 5.1168 17.502 4.91548Q17.3944 4.71416 17.277 4.51836Q17.1596 4.32255 17.0328 4.13275Q16.906 3.94294 16.77 3.75959Q16.634 3.57623 16.4892 3.39977Q16.3444 3.22331 16.1911 3.05417Q16.0378 2.88503 15.8764 2.72361Q15.715 2.5622 15.5458 2.40889Q15.3767 2.25559 15.2002 2.11077Q15.0238 1.96596 14.8404 1.82997Q14.657 1.69399 14.4672 1.56716Q14.2774 1.44034 14.0816 1.32298Q13.8858 1.20562 13.6845 1.09801Q13.4832 0.990404 13.2768 0.892803Q13.0705 0.795202 12.8596 0.707844Q12.6487 0.620486 12.4337 0.543581Q12.2188 0.466677 12.0003 0.400412Q11.7819 0.334146 11.5605 0.278679Q11.339 0.223212 11.1151 0.178678Q10.8912 0.134143 10.6654 0.100648Q10.4396 0.0671523 10.2125 0.0447772Q9.98528 0.0224021 9.75727 0.011201Q9.52927 0 9.30099 0Z" id="path_2" />
    <rect width="100" height="100" id="artboard_1" />
    <clipPath id="clip_1">
      <use xlink:href="#artboard_1" clip-rule="evenodd" />
    </clipPath>
    <clipPath id="clip_2">
      <use xlink:href="#path_1" />
    </clipPath>
    <clipPath id="clip_3">
      <use xlink:href="#path_2" />
    </clipPath>
  </defs>
  <g id="token_setup_dark" clip-path="url(#clip_1)">
    <use xlink:href="#artboard_1" stroke="none" fill="#FFFFFF" fill-opacity="0" />
    <g id="Group-2" transform="translate(5 6)" artboard="cae96a2b-ee77-4190-8c25-65b061101d9e">
      <g id="Group" transform="translate(6.670044 8.0191)">
        <path d="M56.9941 56.808L58.0325 66.6874Q58.0582 66.9315 58.0958 67.1741Q58.1334 67.4167 58.1828 67.6571Q58.2323 67.8975 58.2935 68.1352Q58.3547 68.3729 58.4275 68.6074Q58.5003 68.8418 58.5845 69.0723Q58.6687 69.3029 58.7641 69.5291Q58.8595 69.7552 58.9659 69.9764Q59.0723 70.1976 59.1894 70.4133Q59.3066 70.6291 59.4341 70.8388Q59.5617 71.0485 59.6994 71.2517Q59.8371 71.4549 59.9846 71.6511Q60.1321 71.8473 60.2891 72.036Q60.446 72.2247 60.6121 72.4055Q60.7781 72.5863 60.9528 72.7587Q61.1275 72.9311 61.3104 73.0948Q61.4934 73.2584 61.6842 73.4129Q61.8749 73.5674 62.073 73.7123Q62.2711 73.8573 62.4761 73.9923Q62.6811 74.1273 62.8925 74.2521Q63.1038 74.3769 63.321 74.4912Q63.5383 74.6055 63.7608 74.709Q63.9834 74.8125 64.2108 74.905Q64.4382 74.9974 64.6699 75.0786Q64.9015 75.1598 65.1369 75.2295Q65.3722 75.2992 65.6107 75.3573Q65.8492 75.4153 66.0902 75.4617Q66.3313 75.508 66.5743 75.5424Q66.8174 75.5768 67.0618 75.5993Q67.3062 75.6217 67.5515 75.6322Q67.7967 75.6426 68.0422 75.641Q68.2876 75.6394 68.5327 75.6258Q68.7778 75.6121 69.0219 75.5865L73.9955 75.0637Q74.2396 75.038 74.4822 75.0004Q74.7248 74.9628 74.9652 74.9134Q75.2056 74.8639 75.4433 74.8027Q75.681 74.7415 75.9154 74.6687Q76.1499 74.5959 76.3804 74.5117Q76.611 74.4275 76.8372 74.3321Q77.0633 74.2367 77.2845 74.1303Q77.5057 74.0239 77.7214 73.9068Q77.9371 73.7896 78.1469 73.6621Q78.3566 73.5345 78.5598 73.3968Q78.763 73.2591 78.9592 73.1116Q79.1553 72.9641 79.3441 72.8071Q79.5328 72.6502 79.7136 72.4841Q79.8944 72.3181 80.0668 72.1434Q80.2392 71.9687 80.4029 71.7858Q80.5665 71.6028 80.721 71.412Q80.8755 71.2213 81.0204 71.0232Q81.1653 70.8251 81.3004 70.6201Q81.4354 70.4151 81.5602 70.2037Q81.685 69.9924 81.7993 69.7751Q81.9136 69.5579 82.0171 69.3353Q82.1206 69.1128 82.213 68.8854Q82.3055 68.658 82.3867 68.4263Q82.4678 68.1947 82.5376 67.9593Q82.6073 67.724 82.6654 67.4855Q82.7234 67.247 82.7698 67.006Q82.8161 66.7649 82.8505 66.5219Q82.8849 66.2788 82.9074 66.0344Q82.9298 65.79 82.9403 65.5447Q82.9507 65.2995 82.9491 65.054Q82.9475 64.8086 82.9338 64.5635Q82.9202 64.3184 82.8945 64.0743L79.1489 28.4375Q79.071 27.6963 78.8841 26.9749Q78.6972 26.2535 78.4054 25.5678Q78.1137 24.882 77.7235 24.2471Q77.3333 23.6122 76.8532 23.0422Q76.6273 22.5316 76.346 22.0494Q76.0647 21.5672 75.7314 21.1193Q75.3981 20.6714 75.0171 20.2634Q74.636 19.8553 74.2119 19.4923Q73.7878 19.1292 73.3259 18.8156Q72.864 18.502 72.3701 18.2418Q71.8762 17.9815 71.3564 17.7779Q70.8365 17.5743 70.2973 17.4298L61.1628 14.9822C64.6398 20.2451 66.664 26.5522 66.664 33.332C66.664 42.489 62.9714 50.7837 56.9941 56.808Z" id="Rectangle-3-Union-Subtract" fill="#C5C5C5" fill-rule="evenodd" stroke="none" />
        <g id="Group">
          <path d="M36.4361 28.1548L40.2739 28.1548L40.2739 30.4399C40.7719 29.6586 41.4457 29.0239 42.2953 28.5356C43.1449 28.0474 44.0872 27.8033 45.1223 27.8033C46.9289 27.8033 48.462 28.5112 49.7217 29.9272C50.9815 31.3432 51.6113 33.3157 51.6113 35.8449C51.6113 38.4425 50.9766 40.4614 49.7071 41.9018C48.4376 43.3422 46.8996 44.0624 45.093 44.0624C44.2337 44.0624 43.4549 43.8915 42.7567 43.5497C42.0585 43.2079 41.3236 42.622 40.5522 41.792L40.5522 49.6286L36.4361 49.6286L36.4361 28.1548ZM40.5082 35.6692C40.5082 37.4171 40.8549 38.7086 41.5482 39.5435C42.2416 40.3784 43.0863 40.7959 44.0823 40.7959C45.0393 40.7959 45.8352 40.4126 46.4699 39.646C47.1047 38.8795 47.422 37.6222 47.422 35.8742C47.422 34.2434 47.0949 33.0325 46.4406 32.2416C45.7864 31.4506 44.9758 31.0551 44.0091 31.0551C43.0033 31.0551 42.1683 31.4432 41.5043 32.2196C40.8403 32.9959 40.5082 34.1458 40.5082 35.6692L40.5082 35.6692ZM14.8891 22.2371L19.2249 22.2371L19.2249 33.8675C19.2249 35.7131 19.2786 36.9093 19.386 37.4562C19.5716 38.3351 20.0134 39.0406 20.7117 39.5728C21.4099 40.105 22.3644 40.3711 23.5753 40.3711C24.8057 40.3711 25.7334 40.1197 26.3584 39.6167C26.9834 39.1138 27.3593 38.4962 27.4863 37.7638C27.6132 37.0314 27.6767 35.8156 27.6767 34.1165L27.6767 22.2371L32.0125 22.2371L32.0125 33.5159C32.0125 36.0939 31.8953 37.9152 31.6609 38.9796C31.4266 40.044 30.9945 40.9424 30.3646 41.6748C29.7347 42.4072 28.8925 42.9906 27.8378 43.4252C26.7832 43.8597 25.4063 44.077 23.7071 44.077C21.6564 44.077 20.1013 43.8402 19.0418 43.3666C17.9823 42.893 17.1449 42.2778 16.5297 41.521C15.9145 40.7642 15.5092 39.9707 15.3139 39.1407C15.0307 37.9103 14.8891 36.0939 14.8891 33.6917L14.8891 22.2371Z" id="Up" fill="#C5C5C5" stroke="none" />
          <g id="Oval-2">
            <g clip-path="url(#clip_2)">
              <use xlink:href="#path_1" fill="none" stroke="#C5C5C5" stroke-width="8" />
            </g>
          </g>
        </g>
        <path d="M60.2361 44.9978L72.506 52.0819Q72.7717 52.2353 73.0296 52.4016Q73.2874 52.5678 73.5368 52.7465Q73.7862 52.9253 74.0265 53.116Q74.2669 53.3067 74.4976 53.509Q74.7282 53.7113 74.9487 53.9247Q75.1692 54.1381 75.3789 54.362Q75.5887 54.586 75.7872 54.8199Q75.9857 55.0539 76.1724 55.2973Q76.3592 55.5407 76.5338 55.793Q76.7084 56.0453 76.8705 56.3059Q77.0325 56.5664 77.1815 56.8346Q77.3306 57.1028 77.4663 57.378Q77.602 57.6532 77.724 57.9347Q77.846 58.2162 77.9541 58.5033Q78.0622 58.7905 78.1561 59.0826Q78.2499 59.3747 78.3293 59.6711Q78.4087 59.9674 78.4735 60.2674Q78.5383 60.5673 78.5883 60.87Q78.6382 61.1727 78.6733 61.4775Q78.7084 61.7823 78.7284 62.0885Q78.7485 62.3946 78.7535 62.7014Q78.7585 63.0082 78.7485 63.3149Q78.7384 63.6215 78.7134 63.9273Q78.6883 64.2331 78.6482 64.5373Q78.6082 64.8415 78.5533 65.1434Q78.4983 65.4452 78.4287 65.744Q78.359 66.0428 78.2748 66.3379Q78.1905 66.6329 78.0919 66.9234Q77.9932 67.214 77.8805 67.4993Q77.7677 67.7847 77.6411 68.0642Q77.5145 68.3436 77.3743 68.6165Q77.2341 68.8895 77.0807 69.1552L77.0797 69.1569Q76.9263 69.4226 76.76 69.6805Q76.5937 69.9384 76.415 70.1878Q76.2363 70.4372 76.0456 70.6775Q75.8548 70.9178 75.6525 71.1485Q75.4502 71.3792 75.2368 71.5996Q75.0235 71.8201 74.7995 72.0299Q74.5756 72.2396 74.3416 72.4381Q74.1077 72.6366 73.8643 72.8234Q73.6208 73.0102 73.3685 73.1848Q73.1163 73.3594 72.8557 73.5214Q72.5951 73.6834 72.327 73.8325Q72.0588 73.9815 71.7836 74.1172Q71.5084 74.2529 71.2269 74.3749Q70.9454 74.497 70.6582 74.6051Q70.3711 74.7131 70.079 74.807Q69.7869 74.9008 69.4905 74.9803Q69.1941 75.0597 68.8942 75.1244Q68.5943 75.1892 68.2916 75.2392Q67.9889 75.2892 67.6841 75.3242Q67.3793 75.3593 67.0731 75.3794Q66.7669 75.3994 66.4601 75.4044Q66.1534 75.4095 65.8467 75.3994Q65.5401 75.3894 65.2343 75.3643Q64.9285 75.3392 64.6243 75.2992Q64.3201 75.2591 64.0182 75.2042Q63.7163 75.1493 63.4175 75.0796Q63.1187 75.0099 62.8237 74.9257Q62.5287 74.8414 62.2381 74.7428Q61.9476 74.6442 61.6622 74.5314Q61.3769 74.4186 61.0974 74.292Q60.818 74.1654 60.545 74.0252Q60.2721 73.885 60.0064 73.7316L47.7365 66.6475Q47.4708 66.4941 47.2129 66.3278Q46.955 66.1616 46.7056 65.9828Q46.4562 65.8041 46.2159 65.6134Q45.9756 65.4226 45.7449 65.2203Q45.5142 65.018 45.2938 64.8047Q45.0733 64.5913 44.8635 64.3673Q44.6538 64.1434 44.4553 63.9095Q44.2568 63.6755 44.07 63.4321Q43.8832 63.1886 43.7086 62.9364Q43.534 62.6841 43.372 62.4235Q43.21 62.163 43.0609 61.8948Q42.9119 61.6266 42.7762 61.3514Q42.6405 61.0762 42.5185 60.7947Q42.3964 60.5132 42.2883 60.2261Q42.1803 59.9389 42.0864 59.6468Q41.9926 59.3547 41.9131 59.0583Q41.8337 58.7619 41.769 58.462Q41.7042 58.1621 41.6542 57.8594Q41.6042 57.5567 41.5692 57.2519Q41.5341 56.947 41.514 56.6409Q41.494 56.3347 41.4889 56.0279Q41.4839 55.7212 41.494 55.4145Q41.504 55.1079 41.5291 54.8021Q41.5542 54.4963 41.5942 54.1921Q41.6343 53.8879 41.6892 53.586Q41.7441 53.2841 41.8138 52.9853Q41.8835 52.6865 41.9677 52.3915Q42.052 52.0965 42.1506 51.8059Q42.2492 51.5154 42.362 51.2301Q42.4747 50.9447 42.6014 50.6652Q42.728 50.3858 42.8682 50.1128Q43.0084 49.8399 43.1618 49.5742L43.1628 49.5725Q43.3162 49.3068 43.4825 49.0489Q43.6487 48.791 43.8275 48.5416Q44.0062 48.2922 44.1969 48.0519Q44.3876 47.8116 44.5899 47.5809Q44.7923 47.3502 45.0056 47.1298Q45.219 46.9093 45.4429 46.6995Q45.6669 46.4898 45.9008 46.2913Q46.1348 46.0928 46.3782 45.906Q46.6216 45.7192 46.8739 45.5446Q47.1262 45.37 47.3868 45.208Q47.6473 45.046 47.9155 44.8969Q48.1837 44.7479 48.4589 44.6122Q48.7341 44.4765 49.0156 44.3545Q49.2971 44.2324 49.5842 44.1243Q49.8714 44.0163 50.1635 43.9224Q50.4556 43.8285 50.752 43.7491Q51.0483 43.6697 51.3483 43.605Q51.6482 43.5402 51.9509 43.4902Q52.2536 43.4402 52.5584 43.4052Q52.8632 43.3701 53.1694 43.35Q53.4756 43.33 53.7823 43.3249Q54.0891 43.3199 54.3958 43.33Q54.7024 43.34 55.0082 43.3651Q55.314 43.3902 55.6182 43.4302Q55.9224 43.4703 56.2243 43.5252Q56.5261 43.5801 56.825 43.6498Q57.1238 43.7195 57.4188 43.8037Q57.7138 43.888 58.0043 43.9866Q58.2949 44.0852 58.5802 44.198Q58.8656 44.3107 59.1451 44.4374Q59.4245 44.564 59.6974 44.7042Q59.9704 44.8444 60.2361 44.9978L60.2361 44.9978Z" id="Rectangle-2" fill="#C5C5C5" fill-rule="evenodd" stroke="none" />
      </g>
      <g id="Rectangle-2-Union">
        <g clip-path="url(#clip_3)">
          <use xlink:href="#path_2" fill="none" stroke="#C5C5C5" stroke-width="8" />
        </g>
      </g>
    </g>
  </g>
</svg>