<?xml version="1.0" encoding="utf-8"?>
<svg width="100px" height="100px" viewBox="0 0 100 100" version="1.1" xmlns:xlink="http://www.w3.org/1999/xlink" xmlns="http://www.w3.org/2000/svg">
  <defs>
    <path d="M0 42.332C0 18.9527 18.9527 0 42.332 0C65.7113 0 84.664 18.9527 84.664 42.332C84.664 65.7113 65.7113 84.664 42.332 84.664C18.9527 84.664 0 65.7113 0 42.332Z" id="path_1" />
    <rect width="100" height="100" id="artboard_1" />
    <clipPath id="clip_1">
      <use xlink:href="#artboard_1" clip-rule="evenodd" />
    </clipPath>
    <clipPath id="clip_2">
      <use xlink:href="#path_1" />
    </clipPath>
  </defs>
  <g id="token_delete_light" clip-path="url(#clip_1)">
    <use xlink:href="#artboard_1" stroke="none" fill="#FFFFFF" fill-opacity="0" />
    <g id="Group" transform="translate(0 15.335999)" artboard="d4e52ae2-122f-4e60-97db-9d738fc71edb">
      <path d="M46.3649 35.7569L51.2388 35.7569L51.2388 38.659C51.8713 37.6668 52.7271 36.8607 53.806 36.2406C54.885 35.6205 56.0818 35.3104 57.3964 35.3104C59.6908 35.3104 61.6379 36.2096 63.2377 38.0079C64.8376 39.8061 65.6375 42.3113 65.6375 45.5234C65.6375 48.8224 64.8314 51.3865 63.2191 53.2158C61.6069 55.045 59.6536 55.9597 57.3592 55.9597C56.2678 55.9597 55.2788 55.7427 54.392 55.3086C53.5053 54.8745 52.572 54.1304 51.5923 53.0762L51.5923 63.0288L46.3649 63.0288L46.3649 35.7569ZM51.5366 45.3002C51.5366 47.5202 51.9769 49.1603 52.8574 50.2207C53.738 51.2811 54.8107 51.8112 56.0757 51.8112C57.2911 51.8112 58.3019 51.3245 59.108 50.3509C59.9141 49.3774 60.3172 47.7806 60.3172 45.5606C60.3172 43.4895 59.9017 41.9517 59.0708 40.9471C58.2399 39.9426 57.2105 39.4403 55.9827 39.4403C54.7053 39.4403 53.645 39.9333 52.8016 40.9192C51.9583 41.9052 51.5366 43.3655 51.5366 45.3002L51.5366 45.3002ZM19 28.2413L24.5065 28.2413L24.5065 43.012C24.5065 45.356 24.5747 46.8753 24.7111 47.5698C24.9467 48.6859 25.5079 49.582 26.3947 50.2579C27.2814 50.9338 28.4937 51.2718 30.0315 51.2718C31.5942 51.2718 32.7724 50.9524 33.5661 50.3137C34.3598 49.675 34.8373 48.8906 34.9985 47.9604C35.1597 47.0303 35.2404 45.4862 35.2404 43.3283L35.2404 28.2413L40.7468 28.2413L40.7468 42.5656C40.7468 45.8397 40.598 48.1527 40.3004 49.5045C40.0027 50.8563 39.4539 51.9973 38.654 52.9274C37.8541 53.8576 36.7844 54.5986 35.445 55.1505C34.1056 55.7023 32.3569 55.9783 30.199 55.9783C27.5946 55.9783 25.6195 55.6775 24.2739 55.076C22.9283 54.4746 21.8649 53.6932 21.0835 52.7321C20.3022 51.7709 19.7875 50.7633 19.5395 49.7091C19.1798 48.1465 19 45.8397 19 42.7888L19 28.2413Z" id="Up" fill="#000000" stroke="none" />
      <g id="Oval-2">
        <g clip-path="url(#clip_2)">
          <use xlink:href="#path_1" fill="none" stroke="#000000" stroke-width="8" />
        </g>
      </g>
    </g>
    <g id="×" transform="translate(70 0)" artboard="04871387-19a2-4e4a-b5f0-dbba01b64e20">
      <path d="M3.58594 22.4297L10.6641 15.3516L3.53906 8.25L7.89844 3.89062L15.0234 10.9922L22.1016 3.91406L26.3438 8.17969L19.2656 15.2578L26.4141 22.4062L22.0547 26.7656L14.9062 19.6172L7.82812 26.6953L3.58594 22.4297Z" />
    </g>
  </g>
</svg>